<svg width="32" height="32" viewBox="0 0 32 32" fill="none" xmlns="http://www.w3.org/2000/svg">
<g clip-path="url(#clip0_97_205)">
<circle cx="16" cy="16" r="16" fill="white"/>
<path d="M7.95 15.5C7.78333 15.5 7.66667 15.4333 7.6 15.3C7.53333 15.1666 7.54167 15.0416 7.625 14.925L14.075 5.54998C14.175 5.39998 14.3125 5.34998 14.4875 5.39998C14.6625 5.44998 14.75 5.56664 14.75 5.74998V15.125C14.75 15.225 14.7125 15.3125 14.6375 15.3875C14.5625 15.4625 14.475 15.5 14.375 15.5H7.95ZM10.1 14H13.25V9.32498L10.1 14ZM17 15.025C17.2667 14.0916 17.4583 13.1625 17.575 12.2375C17.6917 11.3125 17.75 10.3166 17.75 9.24998C17.75 8.36664 17.7042 7.50414 17.6125 6.66248C17.5208 5.82081 17.375 4.99998 17.175 4.19998C17.0917 3.86664 17.1208 3.63748 17.2625 3.51248C17.4042 3.38748 17.6167 3.41664 17.9 3.59998C18.6333 4.04998 19.3833 4.66248 20.15 5.43748C20.9167 6.21248 21.625 7.09998 22.275 8.09998C22.925 9.09998 23.475 10.1875 23.925 11.3625C24.375 12.5375 24.6417 13.75 24.725 15C24.7417 15.1333 24.7 15.25 24.6 15.35C24.5 15.45 24.3833 15.5 24.25 15.5H17.35C17.2167 15.5 17.1167 15.4541 17.05 15.3625C16.9833 15.2708 16.9667 15.1583 17 15.025ZM18.725 14H23.1C22.8167 12.55 22.2958 11.15 21.5375 9.79998C20.7792 8.44998 19.95 7.33331 19.05 6.44998C19.1333 6.94998 19.1875 7.44164 19.2125 7.92498C19.2375 8.40831 19.25 8.84998 19.25 9.24998C19.25 10.0166 19.1958 10.8416 19.0875 11.725C18.9792 12.6083 18.8583 13.3666 18.725 14ZM15.25 20.2C14.9167 20.4833 14.5583 20.7041 14.175 20.8625C13.7917 21.0208 13.4 21.1 13 21.1C12.6 21.1 12.2083 21.0208 11.825 20.8625C11.4417 20.7041 11.0833 20.4833 10.75 20.2C10.5167 20.0166 10.2583 19.9208 9.975 19.9125C9.69167 19.9041 9.43333 19.9833 9.2 20.15C9.03333 20.2666 8.86667 20.3666 8.7 20.45C8.53333 20.5333 8.375 20.6083 8.225 20.675C7.875 20.4416 7.53333 20.1375 7.2 19.7625C6.86667 19.3875 6.59167 18.9666 6.375 18.5C6.25833 18.25 6.275 18.0208 6.425 17.8125C6.575 17.6041 6.8 17.5 7.1 17.5H24.9C25.2 17.5 25.425 17.6041 25.575 17.8125C25.725 18.0208 25.7417 18.25 25.625 18.5C25.4083 18.9666 25.1333 19.3875 24.8 19.7625C24.4667 20.1375 24.125 20.4416 23.775 20.675C23.625 20.6083 23.4667 20.5333 23.3 20.45C23.1333 20.3666 22.9667 20.2666 22.8 20.15C22.5667 19.9833 22.3083 19.9041 22.025 19.9125C21.7417 19.9208 21.4833 20.0166 21.25 20.2C20.9167 20.4833 20.5583 20.7041 20.175 20.8625C19.7917 21.0208 19.4 21.1 19 21.1C18.6 21.1 18.2083 21.0208 17.825 20.8625C17.4417 20.7041 17.0833 20.4833 16.75 20.2C16.5167 20.0166 16.2667 19.925 16 19.925C15.7333 19.925 15.4833 20.0166 15.25 20.2ZM7 25C7.48333 25 7.97917 24.9291 8.4875 24.7875C8.99583 24.6458 9.5 24.3833 10 24C10.5 24.3833 11.0042 24.6458 11.5125 24.7875C12.0208 24.9291 12.5167 25 13 25C13.4833 25 13.9792 24.9291 14.4875 24.7875C14.9958 24.6458 15.5 24.3833 16 24C16.5 24.3833 17.0042 24.6458 17.5125 24.7875C18.0208 24.9291 18.5167 25 19 25C19.4833 25 19.9792 24.9291 20.4875 24.7875C20.9958 24.6458 21.5 24.3833 22 24C22.5 24.3833 23.0042 24.6458 23.5125 24.7875C24.0208 24.9291 24.5167 25 25 25H25.25C25.4667 25 25.6458 24.9291 25.7875 24.7875C25.9292 24.6458 26 24.4666 26 24.25C26 24.0333 25.9292 23.8541 25.7875 23.7125C25.6458 23.5708 25.4667 23.5 25.25 23.5H25C24.5833 23.5 24.1625 23.4375 23.7375 23.3125C23.3125 23.1875 22.9 22.9833 22.5 22.7C22.3667 22.6 22.2 22.55 22 22.55C21.8 22.55 21.6333 22.6 21.5 22.7C21.1 22.9833 20.6875 23.1875 20.2625 23.3125C19.8375 23.4375 19.4167 23.5 19 23.5C18.5667 23.5 18.1417 23.4416 17.725 23.325C17.3083 23.2083 16.9 23 16.5 22.7C16.3667 22.6 16.2042 22.55 16.0125 22.55C15.8208 22.55 15.65 22.6 15.5 22.7C15.1 22.9833 14.6875 23.1875 14.2625 23.3125C13.8375 23.4375 13.4167 23.5 13 23.5C12.5667 23.5 12.1417 23.4416 11.725 23.325C11.3083 23.2083 10.9 23 10.5 22.7C10.3667 22.5833 10.2 22.525 10 22.525C9.8 22.525 9.63333 22.5833 9.5 22.7C9.1 23 8.69167 23.2083 8.275 23.325C7.85833 23.4416 7.43333 23.5 7 23.5H6.75C6.53333 23.5 6.35417 23.5708 6.2125 23.7125C6.07083 23.8541 6 24.0333 6 24.25C6 24.4666 6.07083 24.6458 6.2125 24.7875C6.35417 24.9291 6.53333 25 6.75 25H7Z" fill="#D91504"/>
</g>
<defs>
<clipPath id="clip0_97_205">
<rect width="32" height="32" fill="white"/>
</clipPath>
</defs>
</svg>
