<svg xmlns="http://www.w3.org/2000/svg" width="32" height="32" fill="none"><path fill="#D91504" d="M16.135 23.767c.354 0 .654-.123.899-.368.244-.245.366-.545.366-.9a1.22 1.22 0 0 0-.367-.899 1.225 1.225 0 0 0-.9-.367 1.22 1.22 0 0 0-.9.368 1.226 1.226 0 0 0-.366.9c0 .355.122.654.368.899.245.244.545.367.9.367Zm-.126 5.566c-1.838 0-3.566-.35-5.183-1.05a13.549 13.549 0 0 1-4.242-2.866 13.54 13.54 0 0 1-2.867-4.245c-.7-1.619-1.05-3.348-1.05-5.189 0-1.84.35-3.57 1.05-5.188a13.34 13.34 0 0 1 2.867-4.228 13.685 13.685 0 0 1 4.244-2.85c1.619-.7 3.349-1.05 5.189-1.05 1.84 0 3.57.35 5.189 1.05 1.618.7 3.028 1.65 4.228 2.85 1.2 1.2 2.15 2.61 2.85 4.233.7 1.622 1.05 3.353 1.05 5.191 0 1.839-.35 3.566-1.05 5.183-.7 1.617-1.65 3.03-2.85 4.236a13.462 13.462 0 0 1-4.234 2.867c-1.622.704-3.352 1.056-5.19 1.056Zm.008-2c3.144 0 5.817-1.105 8.017-3.316 2.2-2.212 3.3-4.89 3.3-8.034 0-3.144-1.098-5.816-3.294-8.016-2.196-2.2-4.876-3.3-8.04-3.3-3.133 0-5.805 1.098-8.016 3.293-2.211 2.196-3.317 4.876-3.317 8.04 0 3.133 1.106 5.805 3.317 8.017 2.21 2.21 4.889 3.316 8.033 3.316ZM16.093 10a2.75 2.75 0 0 1 1.774.617c.511.41.767.935.767 1.573 0 .584-.174 1.093-.522 1.524-.348.432-.74.838-1.178 1.22a7.707 7.707 0 0 0-1.334 1.412 2.91 2.91 0 0 0-.566 1.754.7.7 0 0 0 .28.583c.186.145.404.217.653.217a.89.89 0 0 0 .662-.267c.175-.177.288-.4.338-.666.067-.467.244-.89.533-1.267.29-.378.625-.72 1.008-1.026a5.905 5.905 0 0 0 1.359-1.574c.355-.6.533-1.251.533-1.954 0-1.12-.416-2.052-1.25-2.796-.833-.744-1.821-1.117-2.965-1.117-.79 0-1.551.167-2.285.5a4.464 4.464 0 0 0-1.8 1.467 1.135 1.135 0 0 0-.216.717.79.79 0 0 0 .315.616c.254.178.517.234.789.167.271-.067.498-.222.679-.467a2.854 2.854 0 0 1 1.063-.915A3.01 3.01 0 0 1 16.093 10Z"/></svg>