<svg xmlns="http://www.w3.org/2000/svg" width="32" height="32" fill="none"><path fill="#D91504" d="m6.167 15.367-3.334-3.334a.96.96 0 0 1-.3-.7c0-.266.1-.5.3-.7l3.334-3.3c.2-.2.433-.3.7-.3.266 0 .5.1.7.3l3.3 3.3c.2.2.3.434.3.7 0 .267-.1.5-.3.7l-3.3 3.334c-.2.2-.434.3-.7.3a.96.96 0 0 1-.7-.3Zm7.266 13.966a.968.968 0 0 1-.712-.287.968.968 0 0 1-.288-.713V22.22a103.132 103.132 0 0 1-3.7-.37 38.262 38.262 0 0 1-3.666-.617 1.054 1.054 0 0 1-.667-.45.964.964 0 0 1-.133-.783.904.904 0 0 1 .5-.633c.266-.134.555-.167.866-.1 1.711.355 3.432.605 5.161.75a62.494 62.494 0 0 0 10.412 0c1.73-.145 3.45-.395 5.16-.75a1.34 1.34 0 0 1 .884.1.9.9 0 0 1 .517.633.914.914 0 0 1-.186.801c-.19.245-.44.4-.748.466-1.2.244-2.405.439-3.616.583a102.88 102.88 0 0 1-3.65.37v6.113c0 .284-.096.521-.288.713a.968.968 0 0 1-.712.287h-5.134ZM6.867 13.3 8.8 11.333 6.867 9.4 4.9 11.333 6.867 13.3Zm9.129-4.633c-1.02 0-1.885-.357-2.596-1.07-.711-.715-1.067-1.581-1.067-2.6 0-1.02.357-1.886 1.07-2.597.714-.711 1.581-1.067 2.6-1.067 1.02 0 1.886.357 2.597 1.071.711.714 1.066 1.58 1.066 2.6s-.356 1.885-1.07 2.596c-.714.711-1.58 1.067-2.6 1.067Zm.007 9.533a2.35 2.35 0 0 1-1.72-.714 2.336 2.336 0 0 1-.716-1.717c0-.668.238-1.241.713-1.719a2.337 2.337 0 0 1 1.717-.717 2.35 2.35 0 0 1 1.72.714c.477.476.716 1.049.716 1.717a2.35 2.35 0 0 1-.714 1.72 2.336 2.336 0 0 1-1.716.716Zm-.009-11.533c.47 0 .867-.16 1.19-.478.321-.318.482-.713.482-1.183 0-.47-.159-.867-.477-1.19a1.597 1.597 0 0 0-1.183-.483c-.47 0-.867.16-1.19.478a1.597 1.597 0 0 0-.483 1.183c0 .47.16.867.478 1.19.318.322.713.483 1.183.483Zm6.973 8.5-1.5-2.667a1.002 1.002 0 0 1 0-1l1.5-2.667a.94.94 0 0 1 .383-.366c.166-.09.339-.134.516-.134h2.967c.178 0 .35.045.517.134a.94.94 0 0 1 .383.366l1.5 2.667a.944.944 0 0 1 .133.495c0 .181-.044.35-.133.505l-1.5 2.667a.94.94 0 0 1-.383.366 1.085 1.085 0 0 1-.517.134h-2.966c-.178 0-.35-.045-.517-.134a.939.939 0 0 1-.384-.366Zm1.455-1.5h1.845L27.2 12l-.922-1.667h-1.845L23.5 12l.922 1.667Z"/></svg>