<svg xmlns="http://www.w3.org/2000/svg" width="24" height="24" fill="none"><path fill="#D91504" d="M3.95 13.5c-.167 0-.283-.067-.35-.2a.34.34 0 0 1 .025-.375l6.45-9.375c.1-.15.238-.2.413-.15.175.05.262.167.262.35v9.375a.36.36 0 0 1-.113.262.36.36 0 0 1-.262.113H3.95ZM6.1 12h3.15V7.325L6.1 12Zm6.9 1.025a18.62 18.62 0 0 0 .575-2.787c.117-.926.175-1.921.175-2.988 0-.883-.046-1.746-.137-2.588a18.324 18.324 0 0 0-.438-2.462c-.083-.333-.054-.563.087-.688.142-.125.355-.095.638.088.733.45 1.483 1.062 2.25 1.837A16.74 16.74 0 0 1 18.275 6.1c.65 1 1.2 2.087 1.65 3.262.45 1.175.717 2.388.8 3.638a.403.403 0 0 1-.125.35.48.48 0 0 1-.35.15h-6.9c-.133 0-.233-.046-.3-.137-.067-.092-.083-.205-.05-.338ZM14.725 12H19.1a14.032 14.032 0 0 0-1.563-4.2c-.758-1.35-1.587-2.467-2.487-3.35.083.5.137.992.162 1.475.026.483.038.925.038 1.325 0 .767-.054 1.592-.162 2.475-.109.883-.23 1.642-.363 2.275Zm-3.475 6.2a4.034 4.034 0 0 1-1.075.663A3.052 3.052 0 0 1 9 19.1c-.4 0-.792-.08-1.175-.238A4.034 4.034 0 0 1 6.75 18.2a1.288 1.288 0 0 0-.775-.287 1.237 1.237 0 0 0-.775.237 3.984 3.984 0 0 1-.5.3c-.167.083-.325.158-.475.225a5.384 5.384 0 0 1-1.025-.913 5.158 5.158 0 0 1-.825-1.262c-.117-.25-.1-.48.05-.688.15-.208.375-.312.675-.312h17.8c.3 0 .525.104.675.313.15.208.167.437.05.687a5.16 5.16 0 0 1-.825 1.262c-.333.375-.675.68-1.025.913-.15-.067-.308-.142-.475-.225a3.984 3.984 0 0 1-.5-.3 1.237 1.237 0 0 0-.775-.237 1.288 1.288 0 0 0-.775.287 4.034 4.034 0 0 1-1.075.663A3.052 3.052 0 0 1 15 19.1c-.4 0-.792-.08-1.175-.238a4.034 4.034 0 0 1-1.075-.662 1.191 1.191 0 0 0-.75-.275c-.267 0-.517.092-.75.275ZM3 23c.483 0 .98-.07 1.487-.212C4.997 22.646 5.5 22.383 6 22c.5.383 1.004.646 1.513.788A5.53 5.53 0 0 0 9 23c.483 0 .98-.07 1.488-.212S11.5 22.383 12 22c.5.383 1.004.646 1.512.788A5.53 5.53 0 0 0 15 23c.483 0 .98-.07 1.488-.212S17.5 22.383 18 22c.5.383 1.004.646 1.512.788A5.53 5.53 0 0 0 21 23h.25a.729.729 0 0 0 .75-.75.728.728 0 0 0-.75-.75H21c-.417 0-.837-.063-1.262-.188A4.18 4.18 0 0 1 18.5 20.7a.81.81 0 0 0-.5-.15.81.81 0 0 0-.5.15 4.18 4.18 0 0 1-1.238.613A4.457 4.457 0 0 1 15 21.5a4.71 4.71 0 0 1-1.275-.175A3.717 3.717 0 0 1 12.5 20.7a.79.79 0 0 0-.488-.15.903.903 0 0 0-.512.15 4.18 4.18 0 0 1-1.238.613A4.458 4.458 0 0 1 9 21.5a4.71 4.71 0 0 1-1.275-.175A3.717 3.717 0 0 1 6.5 20.7a.732.732 0 0 0-.5-.175c-.2 0-.367.058-.5.175-.4.3-.808.508-1.225.625A4.71 4.71 0 0 1 3 21.5h-.25a.728.728 0 0 0-.75.75.729.729 0 0 0 .75.75H3Z"/></svg>