<svg xmlns="http://www.w3.org/2000/svg" width="24" height="24" fill="none"><g clip-path="url(#a)"><path fill="#D91504" d="M5 18.9V20a.961.961 0 0 1-.293.708.973.973 0 0 1-.713.292.953.953 0 0 1-.707-.292A.971.971 0 0 1 3 20v-7.6c0-.078.004-.156.013-.233a.913.913 0 0 1 .062-.242l1.95-5.9c.1-.317.281-.567.544-.75C5.83 5.092 6.125 5 6.45 5h11.1c.325 0 .619.092.881.275.263.183.444.433.544.75l1.95 5.9a.913.913 0 0 1 .063.242c.008.077.012.155.012.233V20a.961.961 0 0 1-.293.708.973.973 0 0 1-.713.292.953.953 0 0 1-.706-.292A.971.971 0 0 1 19 20v-1.1H5Zm.075-8.25h13.85L17.55 6.5H6.45l-1.375 4.15Zm2.07 5.5c.386 0 .71-.131.968-.394.258-.262.387-.581.387-.956 0-.389-.131-.72-.394-.992a1.279 1.279 0 0 0-.956-.408c-.389 0-.72.136-.992.407-.272.27-.408.6-.408.987s.136.71.407.968c.27.259.6.388.987.388Zm9.73 0c.389 0 .72-.131.992-.394.272-.262.408-.581.408-.956 0-.389-.135-.72-.407-.992a1.342 1.342 0 0 0-.987-.408c-.387 0-.71.136-.969.407-.258.27-.387.6-.387.987s.131.71.394.968c.262.259.581.388.956.388ZM4.5 17.4h15v-5.25h-15v5.25Z"/></g><defs><clipPath id="a"><path fill="#fff" d="M0 0h24v24H0z"/></clipPath></defs></svg>