<svg xmlns="http://www.w3.org/2000/svg" width="24" height="24" fill="none"><path fill="#D91504" d="M3 23h-.25a.728.728 0 0 1-.75-.75.729.729 0 0 1 .75-.75H3c.433 0 .858-.058 1.275-.175A3.715 3.715 0 0 0 5.5 20.7a.732.732 0 0 1 .5-.175c.2 0 .366.058.5.175.4.3.808.508 1.225.625.416.117.841.175 1.275.175.416 0 .837-.063 1.262-.188.425-.125.838-.329 1.238-.612.15-.1.32-.15.512-.15a.79.79 0 0 1 .488.15c.4.3.808.508 1.225.625.417.117.841.175 1.275.175.416 0 .837-.063 1.262-.188.425-.125.838-.329 1.238-.612.133-.1.3-.15.5-.15s.366.05.5.15c.4.283.812.487 1.237.612.425.125.846.188 1.263.188h.25a.729.729 0 0 1 .75.75.728.728 0 0 1-.75.75H21c-.483 0-.98-.07-1.488-.213-.508-.141-1.012-.404-1.512-.787-.5.383-1.004.646-1.513.787A5.527 5.527 0 0 1 15 23c-.483 0-.98-.07-1.488-.213-.508-.141-1.012-.404-1.512-.787-.5.383-1.004.646-1.513.787A5.527 5.527 0 0 1 9 23c-.484 0-.98-.07-1.488-.213C7.004 22.646 6.5 22.383 6 22c-.5.383-1.004.646-1.513.787A5.527 5.527 0 0 1 3 23Zm9-13.85c-.5 0-.93-.18-1.288-.538a1.757 1.757 0 0 1-.537-1.287c0-.5.179-.93.537-1.288A1.756 1.756 0 0 1 12 5.5c.5 0 .929.18 1.287.537.359.359.538.788.538 1.288s-.18.93-.538 1.287A1.756 1.756 0 0 1 12 9.15ZM9 19.1c-.4 0-.796-.08-1.188-.238a3.966 3.966 0 0 1-1.087-.662 1.259 1.259 0 0 0-.75-.288 1.101 1.101 0 0 0-.725.238c-.15.117-.3.23-.45.337-.15.109-.3.205-.45.288-.234-.05-.48-.104-.738-.163-.258-.058-.52-.129-.787-.212-.684-.183-1.025-.483-1.025-.9 0-.417.341-.717 1.025-.9.75-.2 1.516-.383 2.3-.55a55.672 55.672 0 0 1 2.2-.425l1.4-4.475c.133-.467.416-.792.85-.975a1.431 1.431 0 0 1 1.275.05l2.65 1.4 3.025-1.6 1.75-4.05-.4-1.025a.746.746 0 0 1-.038-.3c.009-.1.03-.192.063-.275l.775-1.675a.726.726 0 0 1 .412-.388.696.696 0 0 1 .563.013l1.375.625c.183.083.312.22.387.412.075.192.071.38-.012.563L20.65 5.6a.553.553 0 0 1-.175.225.995.995 0 0 1-.25.15l-1.025.4-3.9 9.075c.95.117 1.937.28 2.962.487a61.54 61.54 0 0 1 2.913.663c.65.183.975.483.975.9 0 .417-.325.717-.975.9-.267.083-.53.154-.788.212-.258.059-.504.113-.737.163-.15-.083-.3-.18-.45-.288-.15-.108-.3-.22-.45-.337a1.101 1.101 0 0 0-.725-.238 1.259 1.259 0 0 0-.75.288 3.965 3.965 0 0 1-1.088.662A3.143 3.143 0 0 1 15 19.1c-.4 0-.796-.08-1.188-.238a3.965 3.965 0 0 1-1.087-.662 1.095 1.095 0 0 0-1.45 0 3.965 3.965 0 0 1-1.088.662A3.143 3.143 0 0 1 9 19.1Zm5.225-3.775 1.3-3.1-2.025 1.05-1.9-.95-.9 2.925H12c.383 0 .754.004 1.112.012.359.009.73.03 1.113.063Z"/></svg>