<svg xmlns="http://www.w3.org/2000/svg" width="24" height="24" fill="none"><path fill="#D91504" d="M13.25 5.15c-.5 0-.929-.18-1.287-.538a1.756 1.756 0 0 1-.538-1.287c0-.5.18-.93.538-1.288A1.756 1.756 0 0 1 13.25 1.5c.5 0 .93.18 1.288.538.358.358.537.787.537 1.287 0 .5-.179.93-.537 1.287a1.757 1.757 0 0 1-1.288.538ZM8.025 23a.8.8 0 0 1-.637-.275c-.159-.183-.213-.408-.163-.675l2.85-14.55c.084-.4.275-.708.575-.925.3-.217.617-.325.95-.325.334 0 .646.075.938.225.291.15.529.367.712.65l.975 1.6a4.914 4.914 0 0 0 1.313 1.425 6.455 6.455 0 0 0 1.962.975V9.75c0-.133.05-.25.15-.35a.48.48 0 0 1 .7 0c.1.1.15.217.15.35V22.5a.48.48 0 0 1-.15.35.48.48 0 0 1-.7 0 .48.48 0 0 1-.15-.35v-9.85a7.507 7.507 0 0 1-2.4-.975 8.571 8.571 0 0 1-2-1.725l-.725 3.625 1.65 1.575c.15.133.267.296.35.487.084.192.125.396.125.613v6a.729.729 0 0 1-.75.75.728.728 0 0 1-.75-.75V16.9l-2.5-2.375L8.775 22.4a.724.724 0 0 1-.262.425.745.745 0 0 1-.488.175Zm-.55-10.075 1.25-6.35-.9-.175a1.797 1.797 0 0 0-1.325.262c-.4.259-.641.63-.725 1.113l-.75 3.925c-.033.183.013.367.138.55.125.183.27.292.437.325l1.875.35Z"/></svg>