<svg xmlns="http://www.w3.org/2000/svg" width="32" height="32" fill="none"><path fill="#D91504" d="m16 17.4 4.3 4.3c.2.2.434.3.7.3.267 0 .5-.1.7-.3.2-.2.3-.433.3-.7 0-.267-.1-.5-.3-.7L17.4 16l4.3-4.3c.2-.2.3-.433.3-.7 0-.267-.1-.5-.3-.7a.96.96 0 0 0-.7-.3c-.266 0-.5.1-.7.3L16 14.6l-4.3-4.3a.96.96 0 0 0-.7-.3c-.266 0-.5.1-.7.3-.2.2-.3.433-.3.7 0 .267.1.5.3.7l4.3 4.3-4.3 4.3c-.2.2-.3.433-.3.7 0 .267.1.5.3.7.2.2.434.3.7.3.267 0 .5-.1.7-.3l4.3-4.3Zm0 11.933a12.9 12.9 0 0 1-5.166-1.05 13.524 13.524 0 0 1-4.25-2.866 13.524 13.524 0 0 1-2.867-4.25A12.9 12.9 0 0 1 2.667 16c0-1.845.35-3.578 1.05-5.2a13.325 13.325 0 0 1 2.867-4.233 13.668 13.668 0 0 1 4.25-2.85A12.9 12.9 0 0 1 16 2.667c1.845 0 3.578.35 5.2 1.05 1.623.7 3.034 1.65 4.234 2.85 1.2 1.2 2.15 2.61 2.85 4.233.7 1.622 1.05 3.355 1.05 5.2a12.9 12.9 0 0 1-1.05 5.167 13.668 13.668 0 0 1-2.85 4.25 13.326 13.326 0 0 1-4.234 2.866c-1.622.7-3.355 1.05-5.2 1.05Zm0-2c3.156 0 5.834-1.105 8.034-3.316 2.2-2.212 3.3-4.884 3.3-8.017 0-3.156-1.1-5.833-3.3-8.033-2.2-2.2-4.878-3.3-8.034-3.3-3.133 0-5.805 1.1-8.016 3.3-2.211 2.2-3.317 4.877-3.317 8.033 0 3.133 1.106 5.805 3.317 8.017 2.21 2.21 4.883 3.316 8.016 3.316Z"/></svg>