<svg width="24" height="24" viewBox="0 0 24 24" fill="none" xmlns="http://www.w3.org/2000/svg">
<path d="M6.85844 17.1749L4.37489 15.7999C4.25823 15.7332 4.18739 15.6374 4.16239 15.5124C4.13739 15.3874 4.17212 15.2777 4.26657 15.1832L4.47907 14.9707C4.52629 14.9235 4.57906 14.8874 4.63739 14.8624C4.69573 14.8374 4.75823 14.8332 4.82489 14.8499L7.12489 15.1749L11.5249 10.7499L3.99989 6.6499C3.81656 6.5499 3.71239 6.40407 3.68739 6.2124C3.66239 6.02074 3.71886 5.85594 3.85679 5.718L4.02919 5.5456C4.10966 5.46514 4.19894 5.40824 4.29702 5.3749C4.39509 5.34157 4.49604 5.34157 4.59989 5.3749L14.3249 7.8749L18.5249 3.7499C18.7617 3.51657 19.0542 3.3999 19.4025 3.3999C19.7508 3.3999 20.0416 3.51796 20.2749 3.75408C20.5082 3.99018 20.6249 4.28184 20.6249 4.62908C20.6249 4.97629 20.5082 5.26657 20.2749 5.4999L16.1249 9.6749L18.5999 19.3749C18.6332 19.4953 18.6328 19.6126 18.5986 19.727C18.5645 19.8413 18.5066 19.9406 18.4249 20.0249L18.3459 20.1039C18.1986 20.2512 18.0143 20.3086 17.7931 20.276C17.5719 20.2434 17.4075 20.1347 17.2999 19.9499L13.2499 12.4749L8.84989 16.8999L9.17489 19.1499C9.19156 19.2359 9.18323 19.3157 9.14989 19.3894C9.11656 19.4631 9.07489 19.5249 9.02489 19.5749L8.94989 19.6499C8.83148 19.7666 8.68937 19.8124 8.52357 19.7874C8.35779 19.7624 8.23323 19.6832 8.14989 19.5499L6.85844 17.1749Z" fill="#D91504"/>
</svg>
