<svg xmlns="http://www.w3.org/2000/svg" width="32" height="32" fill="none"><path fill="#D91504" d="M14.333 19v1.667c0 .463.162.856.487 1.18.325.324.72.486 1.184.486a1.6 1.6 0 0 0 1.179-.486c.322-.324.483-.717.483-1.18V19h1.667c.463 0 .857-.162 1.18-.487.325-.325.487-.72.487-1.184a1.6 1.6 0 0 0-.486-1.179 1.612 1.612 0 0 0-1.181-.483h-1.667V14c0-.463-.162-.857-.487-1.18a1.613 1.613 0 0 0-1.183-.487 1.6 1.6 0 0 0-1.18.486A1.612 1.612 0 0 0 14.333 14v1.667h-1.667c-.463 0-.856.162-1.18.487-.324.325-.486.72-.486 1.183 0 .464.162.857.486 1.18.324.322.717.483 1.18.483h1.667Zm-7 9c-.55 0-1.02-.196-1.412-.587A1.926 1.926 0 0 1 5.333 26V13a1.986 1.986 0 0 1 .8-1.6L14.8 4.9c.348-.267.746-.4 1.194-.4.448 0 .85.133 1.206.4l8.666 6.5a1.985 1.985 0 0 1 .8 1.6v13c0 .55-.195 1.02-.587 1.413a1.926 1.926 0 0 1-1.413.587H7.333Zm0-2h17.333V12.867L16 6.567l-8.667 6.3V26Z"/></svg>