<svg xmlns="http://www.w3.org/2000/svg" width="24" height="24" fill="none"><path fill="#D91504" d="m3.9 19-1.85-6.425a.758.758 0 0 1 .038-.587.72.72 0 0 1 .437-.388L4 11.1V5.5c0-.417.146-.767.438-1.05A1.563 1.563 0 0 1 5.5 4h3.75V1.75c0-.212.072-.39.216-.534A.726.726 0 0 1 10 1h4c.213 0 .39.072.534.216a.726.726 0 0 1 .216.534V4h3.75c.413 0 .766.147 1.06.44.293.294.44.647.44 1.06v5.625l1.5.475c.183.067.32.192.413.375a.725.725 0 0 1 .037.575L20.1 19a5.362 5.362 0 0 1-1.838-.525 8.082 8.082 0 0 1-1.587-1.025.9.9 0 0 0-.314-.175 1.155 1.155 0 0 0-.338-.05.773.773 0 0 0-.331.074c-.106.05-.203.116-.292.201a6.918 6.918 0 0 1-1.587 1.076A4.062 4.062 0 0 1 12 19a4.062 4.062 0 0 1-1.813-.424A6.917 6.917 0 0 1 8.6 17.5a1.117 1.117 0 0 0-.298-.2.789.789 0 0 0-.332-.075c-.113 0-.224.017-.332.05a.904.904 0 0 0-.313.175c-.483.4-1.013.742-1.588 1.025A5.362 5.362 0 0 1 3.9 19Zm-1.15 4a.723.723 0 0 1-.534-.217.732.732 0 0 1-.216-.537.731.731 0 0 1 .75-.746H4c.6 0 1.192-.08 1.775-.238a7.31 7.31 0 0 0 1.675-.687 2.41 2.41 0 0 1 .263-.087 1.09 1.09 0 0 1 .574 0c.092.024.18.054.263.087.533.283 1.096.5 1.688.65A7.15 7.15 0 0 0 12 21.45a7.15 7.15 0 0 0 1.762-.225 7.525 7.525 0 0 0 1.688-.65c.083-.033.171-.063.263-.087a1.09 1.09 0 0 1 .574 0c.092.024.18.054.263.087.533.3 1.092.53 1.675.688A6.747 6.747 0 0 0 20 21.5h1.25c.212 0 .39.072.534.217a.732.732 0 0 1 .216.537.731.731 0 0 1-.75.746H20a7.944 7.944 0 0 1-2.025-.262A9.748 9.748 0 0 1 16 21.974a9.587 9.587 0 0 1-2 .762A8.045 8.045 0 0 1 12 23c-.65 0-1.317-.087-2-.262a9.586 9.586 0 0 1-2-.763 9.748 9.748 0 0 1-1.975.762A7.944 7.944 0 0 1 4 23H2.75ZM5.5 10.625l6.025-1.95a1.522 1.522 0 0 1 .95 0L18.5 10.65V5.5h-13v5.125Zm6.488 6.875c.458 0 .887-.104 1.287-.313.4-.208.775-.479 1.125-.812.25-.233.511-.408.784-.525a2.11 2.11 0 0 1 .838-.175 2.48 2.48 0 0 1 1.653.625c.217.183.438.358.662.525a5.7 5.7 0 0 0 .713.45l1.275-4.475L12 10.1l-8.35 2.7 1.3 4.425c.233-.133.467-.28.7-.438a7.99 7.99 0 0 0 .675-.512 2.48 2.48 0 0 1 .8-.475c.283-.1.567-.142.85-.125.283.017.567.08.85.188.283.108.542.279.775.512.35.333.72.604 1.113.813.391.208.816.312 1.275.312Z"/></svg>