<svg xmlns="http://www.w3.org/2000/svg" width="24" height="24" fill="none"><path fill="#D91504" d="M2.825 14.825c-.5 0-.93-.18-1.288-.537A1.757 1.757 0 0 1 1 13c0-.5.18-.93.538-1.287a1.756 1.756 0 0 1 1.287-.538c.5 0 .93.18 1.287.537.359.359.538.788.538 1.288s-.18.93-.538 1.287a1.757 1.757 0 0 1-1.287.538Zm5.5-4.15c-.333.1-.646.063-.937-.113A1.29 1.29 0 0 1 6.8 9.8a1.26 1.26 0 0 1 .112-.938c.159-.291.405-.487.738-.587l3.825-1.15a.698.698 0 0 1 .588.062.716.716 0 0 1 .362.463l.25.975c.05.2.03.383-.063.55a.745.745 0 0 1-.437.35l-3.85 1.15ZM3 22.55a.79.79 0 0 1-.3-.5.67.67 0 0 1 .15-.55l2.275-3.05 1.15-4.875c.083-.35.233-.65.45-.9a1.88 1.88 0 0 1 .875-.55L17.175 9.2l2.1-4.4 2.35-2.35a.592.592 0 0 1 .462-.188c.175.009.33.08.463.213a.672.672 0 0 1 .212.45.578.578 0 0 1-.187.45l-2.1 2.3L18.95 9.9c-.05.15-.12.287-.212.412a1.21 1.21 0 0 1-.338.313l-4.325 3.025c-.067.033-.13.067-.188.1-.058.033-.129.067-.212.1l-5.725 1.8-1.525 3.575L4.05 22.4a.79.79 0 0 1-.5.3.67.67 0 0 1-.55-.15Z"/></svg>