<svg xmlns="http://www.w3.org/2000/svg" width="24" height="24" fill="none"><path fill="#D91504" d="M12.003 15.75c1.181 0 2.184-.414 3.01-1.24.824-.827 1.237-1.832 1.237-3.013 0-1.181-.414-2.184-1.24-3.01-.828-.825-1.832-1.237-3.013-1.237-1.181 0-2.185.413-3.01 1.24-.825.827-1.237 1.832-1.237 3.013 0 1.181.413 2.184 1.24 3.01.827.825 1.831 1.237 3.013 1.237Zm-.01-1.45c-.779 0-1.439-.273-1.98-.818a2.716 2.716 0 0 1-.813-1.988c0-.78.273-1.44.818-1.982a2.716 2.716 0 0 1 1.988-.812c.78 0 1.44.273 1.981.818.542.546.813 1.208.813 1.988s-.273 1.44-.819 1.982a2.716 2.716 0 0 1-1.987.812ZM12 19c-2.3 0-4.396-.625-6.288-1.875-1.891-1.25-3.353-2.9-4.384-4.952a.9.9 0 0 1-.116-.302 1.806 1.806 0 0 1 0-.742.9.9 0 0 1 .116-.302C2.36 8.776 3.821 7.125 5.712 5.875 7.604 4.625 9.7 4 12 4c2.3 0 4.396.625 6.287 1.875 1.892 1.25 3.353 2.9 4.384 4.952a.901.901 0 0 1 .116.302 1.806 1.806 0 0 1 0 .742.901.901 0 0 1-.116.302c-1.03 2.051-2.492 3.702-4.384 4.952C16.396 18.375 14.3 19 12 19Zm-.004-1.5c2.02 0 3.875-.546 5.566-1.637a10.626 10.626 0 0 0 3.863-4.363 10.635 10.635 0 0 0-3.858-4.362A10.04 10.04 0 0 0 12.004 5.5c-2.02 0-3.875.546-5.567 1.638A10.805 10.805 0 0 0 2.55 11.5c.9 1.817 2.194 3.27 3.883 4.363a10.04 10.04 0 0 0 5.563 1.637Z"/></svg>