<svg xmlns="http://www.w3.org/2000/svg" width="32" height="32" fill="none"><path fill="#D91504" d="M16 15.967c-1.467 0-2.667-.467-3.6-1.4-.934-.934-1.4-2.134-1.4-3.6 0-1.467.466-2.667 1.4-3.6.933-.934 2.133-1.4 3.6-1.4 1.466 0 2.666.466 3.6 1.4.933.933 1.4 2.133 1.4 3.6 0 1.466-.467 2.666-1.4 3.6-.934.933-2.134 1.4-3.6 1.4Zm8.666 10.7H7.333c-.55 0-1.02-.196-1.412-.588a1.926 1.926 0 0 1-.588-1.412v-1.134c0-.844.211-1.566.633-2.166.423-.6.967-1.056 1.634-1.367 1.489-.667 2.916-1.167 4.283-1.5 1.367-.333 2.739-.5 4.117-.5 1.378 0 2.744.172 4.1.517 1.355.344 2.777.84 4.264 1.49.695.313 1.253.769 1.673 1.365.42.596.63 1.317.63 2.161v1.134c0 .55-.197 1.02-.588 1.412a1.926 1.926 0 0 1-1.413.588Zm-17.333-2h17.333v-1.134c0-.355-.105-.694-.316-1.016a2.007 2.007 0 0 0-.784-.717c-1.422-.689-2.722-1.161-3.9-1.417A17.249 17.249 0 0 0 16 20c-1.267 0-2.5.128-3.7.383-1.2.256-2.5.728-3.9 1.417a1.894 1.894 0 0 0-.767.717c-.2.322-.3.66-.3 1.016v1.134ZM16 13.967c.866 0 1.583-.284 2.15-.85.566-.567.85-1.284.85-2.15 0-.867-.284-1.584-.85-2.15-.567-.567-1.284-.85-2.15-.85-.867 0-1.584.283-2.15.85-.567.566-.85 1.283-.85 2.15 0 .866.283 1.583.85 2.15.566.566 1.283.85 2.15.85Z"/></svg>