<svg width="24" height="24" viewBox="0 0 24 24" fill="none" xmlns="http://www.w3.org/2000/svg">
<path d="M2.75 22.9999C2.5375 22.9999 2.35938 22.9276 2.21563 22.783C2.07187 22.6384 2 22.4593 2 22.2455C2 22.0318 2.07187 21.8541 2.21563 21.7124C2.35938 21.5707 2.5375 21.4999 2.75 21.4999H21.25C21.4625 21.4999 21.6406 21.5722 21.7844 21.7168C21.9281 21.8614 22 22.0405 22 22.2543C22 22.468 21.9281 22.6457 21.7844 22.7874C21.6406 22.9291 21.4625 22.9999 21.25 22.9999H2.75ZM4.75 19.9999C4.5375 19.9999 4.35938 19.928 4.21563 19.7843C4.07188 19.6405 4 19.4624 4 19.2499V14.7499C3.35 13.2332 2.9 12.0041 2.65 11.0624C2.4 10.1207 2.275 9.1749 2.275 8.2249C2.275 7.25824 2.39583 6.24157 2.6375 5.1749C2.87917 4.10824 3.21667 3.0999 3.65 2.1499C3.81667 1.78324 4.03707 1.50407 4.3112 1.3124C4.58535 1.12074 4.88995 1.0249 5.225 1.0249C5.675 1.0249 6.01667 1.17074 6.25 1.4624C6.48333 1.75407 6.6 2.19157 6.6 2.7749V6.0499C6.6 6.78324 6.74167 7.4749 7.025 8.1249C7.30833 8.7749 7.69583 9.34157 8.1875 9.8249C8.67917 10.3082 9.24827 10.6874 9.8948 10.9624C10.5414 11.2374 11.2431 11.3749 12 11.3749C13.35 11.3749 14.525 11.4749 15.525 11.6749C16.525 11.8749 17.3583 12.1666 18.025 12.5499C18.6917 12.9332 19.1875 13.4207 19.5125 14.0124C19.8375 14.6041 20 15.2999 20 16.0999V19.2499C20 19.4624 19.9281 19.6405 19.7844 19.7843C19.6406 19.928 19.4625 19.9999 19.25 19.9999H4.75ZM5.5 18.4999H18.5V16.0999C18.5 15.5499 18.3667 15.0749 18.1 14.6749C17.8333 14.2749 17.4333 13.9416 16.9 13.6749C16.3667 13.4082 15.6917 13.2082 14.875 13.0749C14.0583 12.9416 13.1 12.8749 12 12.8749C11.05 12.8749 10.1542 12.6957 9.3125 12.3374C8.47083 11.9791 7.7375 11.4916 7.1125 10.8749C6.4875 10.2582 5.99167 9.53324 5.625 8.6999C5.25833 7.86657 5.075 6.9749 5.075 6.0249V2.7749C4.69167 3.5249 4.37917 4.39574 4.1375 5.3874C3.89583 6.37907 3.775 7.3249 3.775 8.2249C3.775 9.0749 3.90417 9.95407 4.1625 10.8624C4.42083 11.7707 4.86667 12.9249 5.5 14.3249V18.4999ZM12 9.9999C10.9 9.9999 9.95833 9.60824 9.175 8.8249C8.39167 8.04157 8 7.0999 8 5.9999C8 4.8999 8.39167 3.95824 9.175 3.1749C9.95833 2.39157 10.9 1.9999 12 1.9999C13.1 1.9999 14.0417 2.39157 14.825 3.1749C15.6083 3.95824 16 4.8999 16 5.9999C16 7.0999 15.6083 8.04157 14.825 8.8249C14.0417 9.60824 13.1 9.9999 12 9.9999ZM12 8.4999C12.7 8.4999 13.2917 8.25824 13.775 7.7749C14.2583 7.29157 14.5 6.6999 14.5 5.9999C14.5 5.2999 14.2583 4.70824 13.775 4.2249C13.2917 3.74157 12.7 3.4999 12 3.4999C11.3 3.4999 10.7083 3.74157 10.225 4.2249C9.74167 4.70824 9.5 5.2999 9.5 5.9999C9.5 6.6999 9.74167 7.29157 10.225 7.7749C10.7083 8.25824 11.3 8.4999 12 8.4999ZM8.25 19.9999V19.0749C8.25 18.0249 8.61328 17.1249 9.33985 16.3749C10.0664 15.6249 10.9531 15.2499 12 15.2499H15C15.2125 15.2499 15.3906 15.3222 15.5344 15.4668C15.6781 15.6114 15.75 15.7905 15.75 16.0043C15.75 16.218 15.6781 16.3957 15.5344 16.5374C15.3906 16.6791 15.2125 16.7499 15 16.7499H12C11.3625 16.7499 10.8281 16.9787 10.3969 17.4362C9.96563 17.8937 9.75 18.44 9.75 19.0749V19.9999H8.25Z" fill="#D91504"/>
</svg>
