<svg xmlns="http://www.w3.org/2000/svg" width="24" height="24" fill="none"><path fill="#D91504" d="M17 5.15c-.5 0-.93-.18-1.287-.538a1.757 1.757 0 0 1-.538-1.287c0-.5.18-.93.537-1.288A1.756 1.756 0 0 1 17 1.5c.5 0 .93.18 1.288.538.358.358.537.787.537 1.287 0 .5-.18.93-.537 1.287A1.756 1.756 0 0 1 17 5.15ZM9 19.1h-.113a.248.248 0 0 1-.112-.025c-1.717-1.2-3.067-2.296-4.05-3.287-.983-.992-1.475-1.83-1.475-2.513 0-.417.175-.692.525-.825.35-.133.708-.2 1.075-.2.483 0 1.063.083 1.738.25.675.167 1.437.4 2.287.7l-.55-3.425a2.2 2.2 0 0 1 .05-1.05c.1-.317.292-.567.575-.75L11.6 6.2l-2.7-.525L6.8 7.1a.719.719 0 0 1-.55.125.699.699 0 0 1-.475-.3.797.797 0 0 1-.125-.575.678.678 0 0 1 .325-.475L8.05 4.45a1.477 1.477 0 0 1 1.1-.25l4.85.9a1.542 1.542 0 0 1 1.05.775l.875 1.55c.383.683.892 1.25 1.525 1.7A5.11 5.11 0 0 0 19.6 10a.818.818 0 0 1 .462.25.67.67 0 0 1 .188.475c0 .25-.083.446-.25.588a.726.726 0 0 1-.6.162 6.761 6.761 0 0 1-2.825-1.2A7.323 7.323 0 0 1 14.5 7.95L11.75 9.8l3.425 2.7c.183.133.325.304.425.512.1.209.15.43.15.663v3.3c.283.2.55.396.8.587.25.192.508.396.775.613a4.993 4.993 0 0 1-1.087.662A3 3 0 0 1 15 19.1c-.433 0-.858-.092-1.275-.275a4.35 4.35 0 0 1-1.175-.775.805.805 0 0 0-.55-.225c-.2 0-.383.075-.55.225a4.35 4.35 0 0 1-1.175.775A3.138 3.138 0 0 1 9 19.1Zm5.25-3.15v-2l-4.15-2.875.425 2.85c.633.3 1.262.62 1.887.962.625.342 1.238.696 1.838 1.063ZM3 23h-.25a.728.728 0 0 1-.75-.75.728.728 0 0 1 .75-.75H3c.433 0 .858-.058 1.275-.175A3.717 3.717 0 0 0 5.5 20.7a.732.732 0 0 1 .5-.175c.2 0 .367.058.5.175.4.3.808.508 1.225.625.417.117.842.175 1.275.175.417 0 .838-.063 1.262-.188A4.18 4.18 0 0 0 11.5 20.7c.15-.1.32-.15.512-.15a.79.79 0 0 1 .488.15c.4.3.808.508 1.225.625.417.117.842.175 1.275.175.417 0 .838-.063 1.262-.188A4.18 4.18 0 0 0 17.5 20.7c.133-.1.3-.15.5-.15s.367.05.5.15c.4.283.813.488 1.238.613.425.125.845.187 1.262.187h.25a.728.728 0 0 1 .75.75.728.728 0 0 1-.75.75H21c-.483 0-.98-.07-1.488-.212S18.5 22.383 18 22c-.5.383-1.004.646-1.512.788A5.527 5.527 0 0 1 15 23c-.483 0-.98-.07-1.488-.212S12.5 22.383 12 22c-.5.383-1.004.646-1.512.788A5.527 5.527 0 0 1 9 23c-.483 0-.98-.07-1.487-.212C7.003 22.646 6.5 22.383 6 22c-.5.383-1.004.646-1.513.788A5.527 5.527 0 0 1 3 23Z"/></svg>