<svg width="120" height="32" viewBox="0 0 120 32" fill="none" xmlns="http://www.w3.org/2000/svg">
<g clip-path="url(#clip0_3_159)">
<path d="M6.96 13.83V21.87C6.96 22.43 7.09 22.84 7.35 23.1C7.63 23.34 8.09 23.46 8.73 23.46H10.68V27H8.04C4.5 27 2.73 25.28 2.73 21.84V13.83H0.75V10.38H2.73V6.27H6.96V10.38H10.68V13.83H6.96ZM17.9009 12.96C18.4409 12.08 19.1409 11.39 20.0009 10.89C20.8809 10.39 21.8809 10.14 23.0009 10.14V14.55H21.8909C20.5709 14.55 19.5709 14.86 18.8909 15.48C18.2309 16.1 17.9009 17.18 17.9009 18.72V27H13.7009V10.38H17.9009V12.96ZM24.7498 18.63C24.7498 16.95 25.0798 15.46 25.7398 14.16C26.4198 12.86 27.3298 11.86 28.4698 11.16C29.6298 10.46 30.9198 10.11 32.3398 10.11C33.5798 10.11 34.6598 10.36 35.5798 10.86C36.5198 11.36 37.2698 11.99 37.8298 12.75V10.38H42.0598V27H37.8298V24.57C37.2898 25.35 36.5398 26 35.5798 26.52C34.6398 27.02 33.5498 27.27 32.3098 27.27C30.9098 27.27 29.6298 26.91 28.4698 26.19C27.3298 25.47 26.4198 24.46 25.7398 23.16C25.0798 21.84 24.7498 20.33 24.7498 18.63ZM37.8298 18.69C37.8298 17.67 37.6298 16.8 37.2298 16.08C36.8298 15.34 36.2898 14.78 35.6098 14.4C34.9298 14 34.1998 13.8 33.4198 13.8C32.6398 13.8 31.9198 13.99 31.2598 14.37C30.5998 14.75 30.0598 15.31 29.6398 16.05C29.2398 16.77 29.0398 17.63 29.0398 18.63C29.0398 19.63 29.2398 20.51 29.6398 21.27C30.0598 22.01 30.5998 22.58 31.2598 22.98C31.9398 23.38 32.6598 23.58 33.4198 23.58C34.1998 23.58 34.9298 23.39 35.6098 23.01C36.2898 22.61 36.8298 22.05 37.2298 21.33C37.6298 20.59 37.8298 19.71 37.8298 18.69ZM53.0918 23.13L57.2918 10.38H61.7618L55.6118 27H50.5118L44.3918 10.38H48.8918L53.0918 23.13ZM79.5708 18.33C79.5708 18.93 79.5308 19.47 79.4508 19.95H67.3008C67.4008 21.15 67.8208 22.09 68.5608 22.77C69.3008 23.45 70.2108 23.79 71.2908 23.79C72.8508 23.79 73.9608 23.12 74.6208 21.78H79.1508C78.6708 23.38 77.7508 24.7 76.3908 25.74C75.0308 26.76 73.3608 27.27 71.3808 27.27C69.7808 27.27 68.3408 26.92 67.0608 26.22C65.8008 25.5 64.8108 24.49 64.0908 23.19C63.3908 21.89 63.0408 20.39 63.0408 18.69C63.0408 16.97 63.3908 15.46 64.0908 14.16C64.7908 12.86 65.7708 11.86 67.0308 11.16C68.2908 10.46 69.7408 10.11 71.3808 10.11C72.9608 10.11 74.3708 10.45 75.6108 11.13C76.8708 11.81 77.8408 12.78 78.5208 14.04C79.2208 15.28 79.5708 16.71 79.5708 18.33ZM75.2208 17.13C75.2008 16.05 74.8108 15.19 74.0508 14.55C73.2908 13.89 72.3608 13.56 71.2608 13.56C70.2208 13.56 69.3408 13.88 68.6208 14.52C67.9208 15.14 67.4908 16.01 67.3308 17.13H75.2208ZM86.8364 4.8V27H82.6364V4.8H86.8364ZM106.436 18.33C106.436 18.93 106.396 19.47 106.316 19.95H94.166C94.266 21.15 94.686 22.09 95.426 22.77C96.166 23.45 97.076 23.79 98.156 23.79C99.716 23.79 100.826 23.12 101.486 21.78H106.016C105.536 23.38 104.616 24.7 103.256 25.74C101.896 26.76 100.226 27.27 98.246 27.27C96.646 27.27 95.206 26.92 93.926 26.22C92.666 25.5 91.676 24.49 90.956 23.19C90.256 21.89 89.906 20.39 89.906 18.69C89.906 16.97 90.256 15.46 90.956 14.16C91.656 12.86 92.636 11.86 93.896 11.16C95.156 10.46 96.606 10.11 98.246 10.11C99.826 10.11 101.236 10.45 102.476 11.13C103.736 11.81 104.706 12.78 105.386 14.04C106.086 15.28 106.436 16.71 106.436 18.33ZM102.086 17.13C102.066 16.05 101.676 15.19 100.916 14.55C100.156 13.89 99.226 13.56 98.126 13.56C97.086 13.56 96.206 13.88 95.486 14.52C94.786 15.14 94.356 16.01 94.196 17.13H102.086ZM113.702 12.96C114.242 12.08 114.942 11.39 115.802 10.89C116.682 10.39 117.682 10.14 118.802 10.14V14.55H117.692C116.372 14.55 115.372 14.86 114.692 15.48C114.032 16.1 113.702 17.18 113.702 18.72V27H109.502V10.38H113.702V12.96Z" fill="white"/>
</g>
<defs>
<clipPath id="clip0_3_159">
<rect width="120" height="32" fill="white"/>
</clipPath>
</defs>
</svg>
